<?xml version="1.0" standalone="no"?>
<!DOCTYPE svg PUBLIC "-//W3C//DTD SVG 20010904//EN"
 "http://www.w3.org/TR/2001/REC-SVG-20010904/DTD/svg10.dtd">
<svg version="1.0" xmlns="http://www.w3.org/2000/svg"
 width="263.000000pt" height="152.000000pt" viewBox="0 0 263.000000 152.000000"
 preserveAspectRatio="xMidYMid meet">

<g transform="translate(0.000000,152.000000) scale(0.100000,-0.100000)"
fill="#000000" stroke="none">
<path d="M50 896 l0 -576 165 0 165 0 0 430 0 430 320 0 c176 0 320 -3 320 -6
0 -3 -131 -194 -290 -425 -159 -230 -290 -421 -290 -424 0 -3 80 -5 179 -5
l178 0 59 85 59 85 188 0 187 0 0 -85 0 -85 155 0 155 0 0 25 c0 25 0 25 31
-9 17 -20 47 -40 67 -46 22 -6 169 -10 353 -10 l316 0 101 142 102 143 -335 3
-335 2 0 260 0 260 -150 0 -150 0 0 25 0 25 486 2 485 3 -101 143 -102 142
-324 0 c-252 0 -332 -3 -357 -14 -36 -14 -87 -69 -87 -92 0 -8 -4 -14 -10 -14
-5 0 -10 7 -10 15 0 9 -18 35 -40 59 -76 82 -27 77 -801 83 l-689 5 0 -576z
m1390 -56 l150 0 0 -30 0 -30 -235 0 c-129 0 -235 2 -235 5 0 3 37 58 83 122
l82 117 3 -92 3 -92 149 0z"/>
<path d="M440 895 l0 -145 123 0 122 0 112 145 112 145 -234 0 -235 0 0 -145z"/>
<path d="M40 125 c0 -60 3 -75 15 -75 10 0 15 11 15 35 0 35 0 35 45 35 25 0
45 5 45 10 0 6 -20 10 -45 10 -38 0 -45 3 -45 20 0 17 7 20 49 20 28 0 53 5
56 10 4 6 -20 10 -64 10 l-71 0 0 -75z"/>
<path d="M210 125 c0 -60 3 -75 15 -75 12 0 15 15 15 75 0 60 -3 75 -15 75
-12 0 -15 -15 -15 -75z"/>
<path d="M290 125 c0 -60 3 -75 15 -75 10 0 15 11 15 35 0 28 4 35 20 35 11 0
37 -16 59 -35 21 -19 44 -35 52 -35 7 0 -2 16 -21 35 -19 19 -29 35 -23 35 14
0 43 28 43 40 0 26 -34 40 -96 40 l-64 0 0 -75z m125 35 c0 -11 -13 -16 -47
-18 -43 -3 -48 -1 -48 18 0 19 5 21 48 18 34 -2 47 -7 47 -18z"/>
<path d="M490 125 c0 -60 3 -75 15 -75 11 0 15 13 16 58 l1 57 25 -57 c15 -32
31 -58 37 -58 7 0 26 28 43 63 l32 62 0 -62 c1 -49 4 -63 16 -63 12 0 15 15
15 75 0 71 -1 75 -23 75 -18 0 -28 -13 -51 -62 l-28 -63 -29 63 c-21 46 -34
62 -49 62 -18 0 -20 -7 -20 -75z"/>
<path d="M720 125 l0 -75 75 0 c43 0 75 4 75 10 0 6 -27 10 -60 10 -57 0 -60
1 -60 25 0 24 3 25 55 25 30 0 55 5 55 10 0 6 -25 10 -55 10 -48 0 -55 2 -55
20 0 18 7 20 60 20 33 0 60 4 60 10 0 6 -32 10 -75 10 l-75 0 0 -75z"/>
<path d="M977 125 c-27 -55 -33 -75 -22 -75 8 0 19 9 25 20 15 29 96 29 105 0
3 -11 13 -20 21 -20 19 0 19 1 -21 80 -46 92 -60 92 -108 -5z m83 -2 c0 -8
-12 -13 -30 -13 l-30 0 17 35 c17 35 17 35 30 13 7 -13 12 -29 13 -35z"/>
<path d="M1115 190 c3 -5 19 -10 36 -10 l29 0 0 -65 c0 -51 3 -65 15 -65 12 0
15 14 15 65 l0 65 30 0 c17 0 30 5 30 10 0 6 -34 10 -81 10 -51 0 -78 -4 -74
-10z"/>
<path d="M1285 190 c3 -5 19 -10 36 -10 l29 0 0 -65 c0 -51 3 -65 15 -65 12 0
15 14 15 65 l0 65 30 0 c17 0 30 5 30 10 0 6 -34 10 -81 10 -51 0 -78 -4 -74
-10z"/>
<path d="M1486 179 c-19 -15 -26 -30 -26 -54 0 -46 38 -75 97 -75 33 0 50 6
68 25 53 52 13 125 -68 125 -30 0 -53 -7 -71 -21z m118 -15 c9 -8 16 -26 16
-39 0 -34 -26 -55 -69 -55 -45 0 -61 14 -61 55 0 17 5 36 12 43 17 17 84 15
102 -4z"/>
<path d="M1680 147 c0 -75 18 -97 79 -97 64 0 81 19 81 93 0 43 -4 57 -15 57
-10 0 -15 -16 -17 -62 l-3 -63 -39 -3 c-48 -4 -56 6 -56 76 0 39 -4 52 -15 52
-11 0 -15 -13 -15 -53z"/>
<path d="M1981 182 c-7 -13 -6 -23 2 -31 8 -8 6 -15 -11 -27 -25 -17 -29 -46
-9 -63 15 -12 147 -11 147 1 0 4 -5 8 -11 8 -7 0 -9 10 -5 25 7 26 -2 33 -20
15 -8 -8 -15 -6 -24 6 -12 14 -12 17 3 25 21 12 22 45 1 53 -30 12 -63 6 -73
-12z m57 -15 c2 -10 -3 -17 -12 -17 -18 0 -29 16 -21 31 9 14 29 6 33 -14z
m-2 -68 c16 -17 16 -22 4 -29 -27 -17 -60 -6 -60 19 0 36 28 41 56 10z"/>
<path d="M2252 193 c-7 -3 -19 -18 -28 -35 -13 -25 -13 -35 -3 -59 15 -37 37
-49 88 -49 29 0 48 7 63 22 14 14 17 23 10 26 -7 2 -19 -4 -28 -13 -26 -25
-85 -16 -103 16 -13 24 -13 29 2 53 14 21 25 26 57 26 21 0 42 -4 45 -10 3 -5
14 -10 23 -10 14 1 13 4 -7 20 -22 19 -87 26 -119 13z"/>
<path d="M2453 188 c-28 -13 -46 -63 -33 -88 36 -67 152 -66 180 0 29 70 -66
127 -147 88z m114 -34 c15 -24 15 -29 2 -53 -12 -22 -22 -26 -59 -26 -37 0
-47 4 -59 26 -13 24 -13 29 2 53 25 37 89 37 114 0z"/>
</g>
</svg>
